<svg width="17" height="16" viewBox="0 0 17 16" fill="none" xmlns="http://www.w3.org/2000/svg">
<path d="M9.0695 0.133843L16.2945 4.14621C16.5066 4.25143 16.685 4.41333 16.8096 4.61373C16.9342 4.81412 17.0002 5.04508 17 5.28065V6.49703C17 7.07988 16.524 7.55292 15.9375 7.55292H15.3V14.3106H16.15C16.3754 14.3106 16.5916 14.3996 16.751 14.558C16.9104 14.7164 17 14.9313 17 15.1553C17 15.3793 16.9104 15.5942 16.751 15.7526C16.5916 15.911 16.3754 16 16.15 16H0.85C0.624566 16 0.408365 15.911 0.248959 15.7526C0.0895533 15.5942 0 15.3793 0 15.1553C0 14.9313 0.0895533 14.7164 0.248959 14.558C0.408365 14.3996 0.624566 14.3106 0.85 14.3106H1.7V7.55292H1.0625C0.476 7.55292 0 7.07988 0 6.49703V5.28065C0 4.83971 0.2295 4.43425 0.6001 4.20449L7.92965 0.133843C8.10673 0.0458247 8.302 0 8.5 0C8.698 0 8.89242 0.0458247 9.0695 0.133843ZM13.6 7.55292H3.4V14.3106H5.95V9.24233H7.65V14.3106H9.35V9.24233H11.05V14.3106H13.6V7.55292ZM8.5 1.73963L1.7 5.54082V5.8635H15.3V5.54082L8.5 1.73963ZM8.5 3.32938C8.72543 3.32938 8.94164 3.41837 9.10104 3.57678C9.26045 3.7352 9.35 3.95005 9.35 4.17408C9.35 4.39811 9.26045 4.61297 9.10104 4.77138C8.94164 4.9298 8.72543 5.01879 8.5 5.01879C8.27457 5.01879 8.05837 4.9298 7.89896 4.77138C7.73955 4.61297 7.65 4.39811 7.65 4.17408C7.65 3.95005 7.73955 3.7352 7.89896 3.57678C8.05837 3.41837 8.27457 3.32938 8.5 3.32938Z" fill="black"/>
</svg>
