<svg width="17" height="17" viewBox="0 0 17 17" fill="none" xmlns="http://www.w3.org/2000/svg">
<path d="M11.1667 5.16667H5.83333M11.1667 7.83333H5.83333M8.5 13.1667L5.83333 10.5H7.16667C7.87391 10.5 8.55219 10.219 9.05229 9.71895C9.55238 9.21886 9.83333 8.54058 9.83333 7.83333C9.83333 7.12609 9.55238 6.44781 9.05229 5.94772C8.55219 5.44762 7.87391 5.16667 7.16667 5.16667M16.5 8.5C16.5 9.55058 16.2931 10.5909 15.891 11.5615C15.489 12.5321 14.8997 13.414 14.1569 14.1569C13.414 14.8997 12.5321 15.489 11.5615 15.891C10.5909 16.2931 9.55058 16.5 8.5 16.5C7.44943 16.5 6.40914 16.2931 5.43853 15.891C4.46793 15.489 3.58601 14.8997 2.84315 14.1569C2.10028 13.414 1.511 12.5321 1.10896 11.5615C0.706926 10.5909 0.5 9.55058 0.5 8.5C0.5 6.37827 1.34285 4.34344 2.84315 2.84315C4.34344 1.34285 6.37827 0.5 8.5 0.5" stroke="black" stroke-linecap="round" stroke-linejoin="round"/>
</svg>
