<svg width="20" height="20" viewBox="0 0 20 20" fill="none" xmlns="http://www.w3.org/2000/svg">
<path d="M8.60001 0.317128C9.03719 0.108354 9.51553 0 10 0C10.4845 0 10.9628 0.108354 11.4 0.317128C11.7844 0.501517 12.1366 0.802004 12.6293 1.22249L12.7063 1.28688C13.1746 1.68688 13.6224 1.87614 14.2478 1.9259L14.3473 1.9337C14.9931 1.98541 15.4546 2.02151 15.8566 2.16395C16.3134 2.32534 16.7283 2.58687 17.071 2.92937C17.4137 3.27188 17.6754 3.6867 17.837 4.14345C17.9785 4.5454 18.0146 5.00686 18.0663 5.65271L18.0741 5.75222C18.1239 6.37758 18.3141 6.82538 18.7131 7.29367L18.7775 7.36977C19.198 7.86343 19.4995 8.21562 19.6829 8.60001C19.8916 9.03719 20 9.51553 20 10C20 10.4845 19.8916 10.9628 19.6829 11.4C19.4985 11.7844 19.198 12.1366 18.7775 12.6293L18.7131 12.7063C18.3053 13.1844 18.1229 13.6341 18.0741 14.2478L18.0663 14.3473C18.0146 14.9931 17.9785 15.4546 17.8361 15.8566C17.6747 16.3134 17.4131 16.7283 17.0706 17.071C16.7281 17.4137 16.3133 17.6754 15.8566 17.837C15.4546 17.9785 14.9931 18.0146 14.3473 18.0663L14.2478 18.0741C13.6224 18.1239 13.1746 18.3141 12.7063 18.7131L12.6293 18.7775C12.1366 19.198 11.7844 19.4995 11.4 19.6829C10.9628 19.8916 10.4845 20 10 20C9.51553 20 9.03719 19.8916 8.60001 19.6829C8.21562 19.4985 7.86343 19.198 7.37075 18.7775L7.29367 18.7131C6.86831 18.3297 6.3241 18.1041 5.75222 18.0741L5.65271 18.0663C5.00686 18.0146 4.5454 17.9785 4.14345 17.8361C3.68662 17.6747 3.27167 17.4131 2.929 17.0706C2.58632 16.7281 2.32459 16.3133 2.16297 15.8566C2.02151 15.4546 1.98541 14.9931 1.9337 14.3473L1.9259 14.2478C1.89591 13.6759 1.67031 13.1317 1.28688 12.7063L1.22249 12.6293C0.802004 12.1366 0.500542 11.7844 0.317128 11.4C0.108354 10.9628 0 10.4845 0 10C0 9.51553 0.108354 9.03719 0.317128 8.60001C0.501517 8.21562 0.802004 7.86343 1.22249 7.37075L1.28688 7.29367C1.67031 6.86831 1.89591 6.3241 1.9259 5.75222L1.9337 5.65271C1.98541 5.00686 2.02151 4.5454 2.16395 4.14345C2.32534 3.68662 2.58687 3.27167 2.92937 2.929C3.27188 2.58632 3.6867 2.32459 4.14345 2.16297C4.5454 2.02151 5.00686 1.98541 5.65271 1.9337L5.75222 1.9259C6.3241 1.89591 6.86831 1.67031 7.29367 1.28688L7.36977 1.22249C7.86343 0.802004 8.21562 0.500542 8.60001 0.317128ZM8.07806 7.04392C8.01107 6.97203 7.93029 6.91437 7.84054 6.87438C7.75078 6.83438 7.65389 6.81288 7.55564 6.81115C7.4574 6.80941 7.35981 6.82749 7.2687 6.86429C7.17759 6.90109 7.09483 6.95586 7.02534 7.02534C6.95586 7.09483 6.90109 7.17759 6.86429 7.2687C6.82749 7.35981 6.80941 7.4574 6.81115 7.55564C6.81288 7.65389 6.83438 7.75078 6.87438 7.84054C6.91437 7.93029 6.97203 8.01107 7.04392 8.07806L7.38831 8.42342C7.45529 8.49531 7.53607 8.55297 7.62583 8.59296C7.71558 8.63296 7.81247 8.65446 7.91072 8.65619C8.00897 8.65793 8.10656 8.63985 8.19767 8.60305C8.28878 8.56625 8.37154 8.51148 8.44102 8.442C8.5105 8.37251 8.56528 8.28975 8.60208 8.19864C8.63888 8.10753 8.65695 8.00994 8.65522 7.9117C8.65348 7.81345 8.63198 7.71656 8.59199 7.6268C8.552 7.53705 8.49434 7.45627 8.42245 7.38928L8.07806 7.04392ZM11.5805 11.5805C11.4435 11.7177 11.3665 11.9036 11.3665 12.0975C11.3665 12.2914 11.4435 12.4774 11.5805 12.6146L11.9249 12.96C12.0636 13.0892 12.247 13.1596 12.4366 13.1562C12.6262 13.1529 12.807 13.0761 12.9411 12.9421C13.0751 12.808 13.1519 12.6271 13.1553 12.4376C13.1586 12.248 13.0883 12.0645 12.959 11.9258L12.6146 11.5805C12.4774 11.4435 12.2914 11.3665 12.0975 11.3665C11.9036 11.3665 11.7177 11.4435 11.5805 11.5805ZM12.9561 8.07806C13.028 8.01107 13.0856 7.93029 13.1256 7.84054C13.1656 7.75078 13.1871 7.65389 13.1889 7.55564C13.1906 7.4574 13.1725 7.35981 13.1357 7.2687C13.0989 7.17759 13.0441 7.09483 12.9747 7.02534C12.9052 6.95586 12.8224 6.90109 12.7313 6.86429C12.6402 6.82749 12.5426 6.80941 12.4444 6.81115C12.3461 6.81288 12.2492 6.83438 12.1595 6.87438C12.0697 6.91437 11.9889 6.97203 11.9219 7.04392L7.04392 11.9219C6.97203 11.9889 6.91437 12.0697 6.87438 12.1595C6.83438 12.2492 6.81288 12.3461 6.81115 12.4444C6.80941 12.5426 6.82749 12.6402 6.86429 12.7313C6.90109 12.8224 6.95586 12.9052 7.02534 12.9747C7.09483 13.0441 7.17759 13.0989 7.2687 13.1357C7.35981 13.1725 7.4574 13.1906 7.55564 13.1889C7.65389 13.1871 7.75078 13.1656 7.84054 13.1256C7.93029 13.0856 8.01107 13.028 8.07806 12.9561L12.9561 8.07806Z" fill="#2DAB7D"/>
</svg>
