<svg width="9" height="9" viewBox="0 0 9 9" fill="none" xmlns="http://www.w3.org/2000/svg">
<path d="M8.99992 0.819319C9.00147 0.711305 8.98134 0.604078 8.94072 0.503981C8.9001 0.403885 8.83982 0.312954 8.76343 0.236569C8.68705 0.160184 8.59612 0.0998978 8.49602 0.0592777C8.39592 0.0186577 8.28869 -0.00147076 8.18068 8.36278e-05L4.72466 0.04393C4.39299 0.047945 4.07607 0.181639 3.84174 0.416394L0.472948 3.78472C0.277716 3.97995 0.104638 4.26195 0.0335608 4.56334C-0.0384388 4.8698 -0.010747 5.24457 0.277716 5.53257L3.46696 8.72228C3.75543 9.01075 4.1302 9.03844 4.43666 8.96644C4.73095 8.89256 4.99991 8.74078 5.21528 8.52705L8.58361 5.15826C8.81795 4.92365 8.95157 4.60691 8.95607 4.27534L8.99992 0.819319ZM6.41898 1.87625C6.4846 1.8151 6.57139 1.78181 6.66107 1.7834C6.75075 1.78498 6.83631 1.82131 6.89973 1.88473C6.96315 1.94815 6.99948 2.03371 7.00106 2.12339C7.00265 2.21307 6.96936 2.29986 6.90821 2.36548L6.5819 2.69225C6.51659 2.75528 6.42913 2.79013 6.33837 2.7893C6.24761 2.78846 6.16081 2.75202 6.09666 2.68781C6.03251 2.6236 5.99614 2.53676 5.9954 2.446C5.99465 2.35524 6.02958 2.26781 6.09267 2.20256L6.41898 1.87625Z" fill="#31A663"/>
</svg>
