<svg width="114" height="15" viewBox="0 0 114 15" fill="none" xmlns="http://www.w3.org/2000/svg">
<rect width="114" height="15" rx="7.5" fill="#D7FEE6"/>
<circle cx="11" cy="7.5" r="5" fill="#31A663"/>
<path d="M13.3529 5.97562C13.4435 6.0705 13.4963 6.20135 13.4998 6.3394C13.5033 6.47746 13.4573 6.61141 13.3717 6.71181L10.7092 9.83718C10.666 9.88774 10.6142 9.9282 10.5567 9.95617C10.4992 9.98414 10.4372 9.99905 10.3744 10C10.3116 10.001 10.2493 9.988 10.1911 9.96182C10.133 9.93564 10.0801 9.8968 10.0357 9.84759L8.62611 8.28491C8.54311 8.18617 8.49793 8.05557 8.50007 7.92062C8.50222 7.78567 8.55153 7.65692 8.63762 7.56148C8.72371 7.46604 8.83985 7.41138 8.96157 7.409C9.0833 7.40662 9.20111 7.45671 9.29018 7.54872L10.3583 8.73219L12.6889 5.99645C12.7744 5.89609 12.8925 5.83752 13.017 5.83361C13.1415 5.82971 13.2624 5.88078 13.3529 5.97562Z" fill="white"/>
<path d="M21.9148 6.22727C21.8892 6.01136 21.7855 5.84375 21.6037 5.72443C21.4219 5.60511 21.1989 5.54545 20.9347 5.54545C20.7415 5.54545 20.5724 5.5767 20.4276 5.6392C20.2841 5.7017 20.1719 5.78764 20.0909 5.89702C20.0114 6.00639 19.9716 6.13068 19.9716 6.26989C19.9716 6.38636 19.9993 6.48651 20.0547 6.57031C20.1115 6.6527 20.1839 6.72159 20.272 6.77699C20.3601 6.83097 20.4524 6.87571 20.549 6.91122C20.6456 6.94531 20.7344 6.97301 20.8153 6.99432L21.2585 7.11364C21.3722 7.14347 21.4986 7.18466 21.6378 7.23722C21.7784 7.28977 21.9126 7.36151 22.0405 7.45241C22.1697 7.5419 22.2763 7.65696 22.3601 7.79759C22.4439 7.93821 22.4858 8.1108 22.4858 8.31534C22.4858 8.55114 22.424 8.7642 22.3004 8.95455C22.1783 9.14489 21.9993 9.29616 21.7635 9.40838C21.5291 9.5206 21.2443 9.5767 20.9091 9.5767C20.5966 9.5767 20.326 9.52628 20.0973 9.42543C19.87 9.32457 19.6911 9.18395 19.5604 9.00355C19.4311 8.82315 19.358 8.61364 19.3409 8.375H19.8864C19.9006 8.53977 19.956 8.67614 20.0526 8.78409C20.1506 8.89062 20.2741 8.97017 20.4233 9.02273C20.5739 9.07386 20.7358 9.09943 20.9091 9.09943C21.1108 9.09943 21.2919 9.06676 21.4524 9.00142C21.6129 8.93466 21.7401 8.84233 21.8338 8.72443C21.9276 8.60511 21.9744 8.46591 21.9744 8.30682C21.9744 8.16193 21.9339 8.04403 21.853 7.95312C21.772 7.86222 21.6655 7.78835 21.5334 7.73153C21.4013 7.67472 21.2585 7.625 21.1051 7.58239L20.5682 7.42898C20.2273 7.33097 19.9574 7.19105 19.7585 7.00923C19.5597 6.82741 19.4602 6.58949 19.4602 6.29545C19.4602 6.05114 19.5263 5.83807 19.6584 5.65625C19.7919 5.47301 19.9709 5.33097 20.1953 5.23011C20.4212 5.12784 20.6733 5.0767 20.9517 5.0767C21.233 5.0767 21.483 5.12713 21.7017 5.22798C21.9205 5.32741 22.0938 5.46378 22.2216 5.63707C22.3509 5.81037 22.419 6.0071 22.4261 6.22727H21.9148ZM24.6159 9.56818C24.3091 9.56818 24.0449 9.49574 23.8233 9.35085C23.6017 9.20597 23.4313 9.00639 23.312 8.75213C23.1926 8.49787 23.133 8.20739 23.133 7.88068C23.133 7.5483 23.1941 7.25497 23.3162 7.00071C23.4398 6.74503 23.6117 6.54545 23.8319 6.40199C24.0534 6.2571 24.312 6.18466 24.6074 6.18466C24.8375 6.18466 25.0449 6.22727 25.2296 6.3125C25.4142 6.39773 25.5655 6.51705 25.6834 6.67045C25.8013 6.82386 25.8745 7.00284 25.9029 7.20739H25.4C25.3617 7.05824 25.2765 6.92614 25.1444 6.81108C25.0137 6.6946 24.8375 6.63636 24.6159 6.63636C24.4199 6.63636 24.248 6.6875 24.1003 6.78977C23.954 6.89062 23.8397 7.03338 23.7573 7.21804C23.6763 7.40128 23.6358 7.61648 23.6358 7.86364C23.6358 8.11648 23.6756 8.33665 23.7551 8.52415C23.8361 8.71165 23.9498 8.85724 24.0961 8.96094C24.2438 9.06463 24.4171 9.11648 24.6159 9.11648C24.7466 9.11648 24.8652 9.09375 24.9718 9.0483C25.0783 9.00284 25.1685 8.9375 25.2424 8.85227C25.3162 8.76705 25.3688 8.66477 25.4 8.54545H25.9029C25.8745 8.73864 25.8042 8.91264 25.6919 9.06747C25.5811 9.22088 25.4341 9.34304 25.2509 9.43395C25.0691 9.52344 24.8574 9.56818 24.6159 9.56818ZM27.9675 9.56818C27.6721 9.56818 27.4128 9.49787 27.1898 9.35724C26.9682 9.21662 26.7949 9.01989 26.6699 8.76705C26.5463 8.5142 26.4846 8.21875 26.4846 7.88068C26.4846 7.53977 26.5463 7.24219 26.6699 6.98793C26.7949 6.73366 26.9682 6.53622 27.1898 6.3956C27.4128 6.25497 27.6721 6.18466 27.9675 6.18466C28.263 6.18466 28.5215 6.25497 28.7431 6.3956C28.9661 6.53622 29.1394 6.73366 29.263 6.98793C29.388 7.24219 29.4505 7.53977 29.4505 7.88068C29.4505 8.21875 29.388 8.5142 29.263 8.76705C29.1394 9.01989 28.9661 9.21662 28.7431 9.35724C28.5215 9.49787 28.263 9.56818 27.9675 9.56818ZM27.9675 9.11648C28.1919 9.11648 28.3766 9.05895 28.5215 8.94389C28.6664 8.82884 28.7736 8.67756 28.8432 8.49006C28.9128 8.30256 28.9476 8.09943 28.9476 7.88068C28.9476 7.66193 28.9128 7.4581 28.8432 7.26918C28.7736 7.08026 28.6664 6.92756 28.5215 6.81108C28.3766 6.6946 28.1919 6.63636 27.9675 6.63636C27.7431 6.63636 27.5584 6.6946 27.4135 6.81108C27.2686 6.92756 27.1614 7.08026 27.0918 7.26918C27.0222 7.4581 26.9874 7.66193 26.9874 7.88068C26.9874 8.09943 27.0222 8.30256 27.0918 8.49006C27.1614 8.67756 27.2686 8.82884 27.4135 8.94389C27.5584 9.05895 27.7431 9.11648 27.9675 9.11648ZM30.218 9.5V6.22727H30.7038V6.72159H30.7379C30.7976 6.55966 30.9055 6.42827 31.0618 6.32741C31.218 6.22656 31.3942 6.17614 31.5902 6.17614C31.6271 6.17614 31.6733 6.17685 31.7287 6.17827C31.7841 6.17969 31.826 6.18182 31.8544 6.18466V6.69602C31.8374 6.69176 31.7983 6.68537 31.7372 6.67685C31.6776 6.6669 31.6143 6.66193 31.5476 6.66193C31.3885 6.66193 31.2464 6.69531 31.1214 6.76207C30.9979 6.82741 30.8999 6.91832 30.8274 7.0348C30.7564 7.14986 30.7209 7.28125 30.7209 7.42898V9.5H30.218ZM33.723 9.56818C33.4077 9.56818 33.1357 9.49858 32.907 9.35938C32.6797 9.21875 32.5043 9.02273 32.3807 8.77131C32.2585 8.51847 32.1974 8.22443 32.1974 7.8892C32.1974 7.55398 32.2585 7.25852 32.3807 7.00284C32.5043 6.74574 32.6761 6.54545 32.8963 6.40199C33.1179 6.2571 33.3764 6.18466 33.6719 6.18466C33.8423 6.18466 34.0107 6.21307 34.1768 6.26989C34.343 6.3267 34.4943 6.41903 34.6307 6.54688C34.767 6.6733 34.8757 6.84091 34.9567 7.04972C35.0376 7.25852 35.0781 7.51562 35.0781 7.82102V8.03409H32.5554V7.59943H34.5668C34.5668 7.41477 34.5298 7.25 34.456 7.10511C34.3835 6.96023 34.2798 6.84588 34.1449 6.76207C34.0114 6.67827 33.8537 6.63636 33.6719 6.63636C33.4716 6.63636 33.2983 6.68608 33.152 6.78551C33.0071 6.88352 32.8956 7.01136 32.8175 7.16903C32.7393 7.3267 32.7003 7.49574 32.7003 7.67614V7.96591C32.7003 8.21307 32.7429 8.42259 32.8281 8.59446C32.9148 8.76491 33.0348 8.89489 33.1882 8.98438C33.3416 9.07244 33.5199 9.11648 33.723 9.11648C33.8551 9.11648 33.9744 9.09801 34.081 9.06108C34.1889 9.02273 34.282 8.96591 34.3601 8.89062C34.4382 8.81392 34.4986 8.71875 34.5412 8.60511L35.027 8.74148C34.9759 8.90625 34.8899 9.05114 34.7692 9.17614C34.6484 9.29972 34.4993 9.39631 34.3217 9.46591C34.1442 9.53409 33.9446 9.56818 33.723 9.56818ZM38.1271 5.13636V9.5H37.5987V5.13636H38.1271ZM39.1184 9.5V6.22727H39.6042V6.73864H39.6468C39.715 6.56392 39.8251 6.42827 39.9771 6.33168C40.1291 6.23366 40.3116 6.18466 40.5247 6.18466C40.7406 6.18466 40.9203 6.23366 41.0637 6.33168C41.2086 6.42827 41.3216 6.56392 41.4025 6.73864H41.4366C41.5204 6.5696 41.6461 6.43537 41.8137 6.33594C41.9814 6.23509 42.1824 6.18466 42.4167 6.18466C42.7093 6.18466 42.9487 6.27628 43.1348 6.45952C43.3208 6.64134 43.4139 6.92472 43.4139 7.30966V9.5H42.911V7.30966C42.911 7.06818 42.845 6.8956 42.7129 6.7919C42.5808 6.68821 42.4252 6.63636 42.2463 6.63636C42.0162 6.63636 41.8379 6.70597 41.7115 6.84517C41.585 6.98295 41.5218 7.15767 41.5218 7.36932V9.5H41.0105V7.25852C41.0105 7.07244 40.9501 6.92259 40.8294 6.80895C40.7086 6.69389 40.5531 6.63636 40.3627 6.63636C40.2321 6.63636 40.1099 6.67116 39.9963 6.74077C39.8841 6.81037 39.7931 6.90696 39.7235 7.03054C39.6554 7.1527 39.6213 7.29403 39.6213 7.45455V9.5H39.1184ZM44.3333 10.7273V6.22727H44.8191V6.74716H44.8787C44.9157 6.69034 44.9668 6.6179 45.0321 6.52983C45.0989 6.44034 45.1941 6.3608 45.3176 6.29119C45.4426 6.22017 45.6117 6.18466 45.8248 6.18466C46.1003 6.18466 46.3432 6.25355 46.5534 6.39134C46.7637 6.52912 46.9277 6.72443 47.0456 6.97727C47.1635 7.23011 47.2225 7.52841 47.2225 7.87216C47.2225 8.21875 47.1635 8.51918 47.0456 8.77344C46.9277 9.02628 46.7644 9.2223 46.5556 9.36151C46.3468 9.49929 46.106 9.56818 45.8333 9.56818C45.623 9.56818 45.4547 9.53338 45.3283 9.46378C45.2019 9.39276 45.1046 9.3125 45.0364 9.22301C44.9682 9.1321 44.9157 9.05682 44.8787 8.99716H44.8361V10.7273H44.3333ZM44.8276 7.86364C44.8276 8.1108 44.8638 8.32884 44.9363 8.51776C45.0087 8.70526 45.1145 8.85227 45.2537 8.95881C45.3929 9.06392 45.5634 9.11648 45.7651 9.11648C45.9753 9.11648 46.1507 9.06108 46.2914 8.95028C46.4334 8.83807 46.54 8.6875 46.611 8.49858C46.6834 8.30824 46.7196 8.09659 46.7196 7.86364C46.7196 7.63352 46.6841 7.42614 46.6131 7.24148C46.5435 7.0554 46.4377 6.90838 46.2956 6.80043C46.155 6.69105 45.9782 6.63636 45.7651 6.63636C45.5605 6.63636 45.3887 6.68821 45.2495 6.7919C45.1103 6.89418 45.0051 7.03764 44.9341 7.2223C44.8631 7.40554 44.8276 7.61932 44.8276 7.86364ZM47.9895 9.5V6.22727H48.4753V6.72159H48.5094C48.5691 6.55966 48.677 6.42827 48.8333 6.32741C48.9895 6.22656 49.1657 6.17614 49.3617 6.17614C49.3986 6.17614 49.4448 6.17685 49.5002 6.17827C49.5556 6.17969 49.5975 6.18182 49.6259 6.18466V6.69602C49.6088 6.69176 49.5698 6.68537 49.5087 6.67685C49.449 6.6669 49.3858 6.66193 49.3191 6.66193C49.16 6.66193 49.0179 6.69531 48.8929 6.76207C48.7694 6.82741 48.6713 6.91832 48.5989 7.0348C48.5279 7.14986 48.4924 7.28125 48.4924 7.42898V9.5H47.9895ZM51.4519 9.56818C51.1564 9.56818 50.8972 9.49787 50.6742 9.35724C50.4526 9.21662 50.2793 9.01989 50.1543 8.76705C50.0307 8.5142 49.9689 8.21875 49.9689 7.88068C49.9689 7.53977 50.0307 7.24219 50.1543 6.98793C50.2793 6.73366 50.4526 6.53622 50.6742 6.3956C50.8972 6.25497 51.1564 6.18466 51.4519 6.18466C51.7473 6.18466 52.0059 6.25497 52.2275 6.3956C52.4505 6.53622 52.6238 6.73366 52.7473 6.98793C52.8723 7.24219 52.9348 7.53977 52.9348 7.88068C52.9348 8.21875 52.8723 8.5142 52.7473 8.76705C52.6238 9.01989 52.4505 9.21662 52.2275 9.35724C52.0059 9.49787 51.7473 9.56818 51.4519 9.56818ZM51.4519 9.11648C51.6763 9.11648 51.861 9.05895 52.0059 8.94389C52.1507 8.82884 52.258 8.67756 52.3276 8.49006C52.3972 8.30256 52.432 8.09943 52.432 7.88068C52.432 7.66193 52.3972 7.4581 52.3276 7.26918C52.258 7.08026 52.1507 6.92756 52.0059 6.81108C51.861 6.6946 51.6763 6.63636 51.4519 6.63636C51.2275 6.63636 51.0428 6.6946 50.8979 6.81108C50.753 6.92756 50.6458 7.08026 50.5762 7.26918C50.5066 7.4581 50.4718 7.66193 50.4718 7.88068C50.4718 8.09943 50.5066 8.30256 50.5762 8.49006C50.6458 8.67756 50.753 8.82884 50.8979 8.94389C51.0428 9.05895 51.2275 9.11648 51.4519 9.11648ZM56.2614 6.22727L55.0511 9.5H54.5398L53.3295 6.22727H53.875L54.7784 8.83523H54.8125L55.7159 6.22727H56.2614ZM58.18 9.56818C57.8647 9.56818 57.5927 9.49858 57.364 9.35938C57.1367 9.21875 56.9613 9.02273 56.8377 8.77131C56.7156 8.51847 56.6545 8.22443 56.6545 7.8892C56.6545 7.55398 56.7156 7.25852 56.8377 7.00284C56.9613 6.74574 57.1332 6.54545 57.3533 6.40199C57.5749 6.2571 57.8335 6.18466 58.1289 6.18466C58.2994 6.18466 58.4677 6.21307 58.6339 6.26989C58.8001 6.3267 58.9513 6.41903 59.0877 6.54688C59.2241 6.6733 59.3327 6.84091 59.4137 7.04972C59.4947 7.25852 59.5352 7.51562 59.5352 7.82102V8.03409H57.0124V7.59943H59.0238C59.0238 7.41477 58.9869 7.25 58.913 7.10511C58.8406 6.96023 58.7369 6.84588 58.6019 6.76207C58.4684 6.67827 58.3107 6.63636 58.1289 6.63636C57.9286 6.63636 57.7553 6.68608 57.609 6.78551C57.4641 6.88352 57.3526 7.01136 57.2745 7.16903C57.1964 7.3267 57.1573 7.49574 57.1573 7.67614V7.96591C57.1573 8.21307 57.1999 8.42259 57.2852 8.59446C57.3718 8.76491 57.4918 8.89489 57.6452 8.98438C57.7987 9.07244 57.9769 9.11648 58.18 9.11648C58.3121 9.11648 58.4315 9.09801 58.538 9.06108C58.646 9.02273 58.739 8.96591 58.8171 8.89062C58.8952 8.81392 58.9556 8.71875 58.9982 8.60511L59.484 8.74148C59.4329 8.90625 59.3469 9.05114 59.2262 9.17614C59.1055 9.29972 58.9563 9.39631 58.7788 9.46591C58.6012 9.53409 58.4016 9.56818 58.18 9.56818ZM60.3001 9.5V6.22727H60.7859V6.73864H60.8285C60.8967 6.56392 61.0067 6.42827 61.1587 6.33168C61.3107 6.23366 61.4933 6.18466 61.7063 6.18466C61.9222 6.18466 62.1019 6.23366 62.2454 6.33168C62.3903 6.42827 62.5032 6.56392 62.5842 6.73864H62.6183C62.7021 6.5696 62.8278 6.43537 62.9954 6.33594C63.163 6.23509 63.364 6.18466 63.5984 6.18466C63.891 6.18466 64.1303 6.27628 64.3164 6.45952C64.5025 6.64134 64.5955 6.92472 64.5955 7.30966V9.5H64.0927V7.30966C64.0927 7.06818 64.0266 6.8956 63.8945 6.7919C63.7624 6.68821 63.6069 6.63636 63.4279 6.63636C63.1978 6.63636 63.0195 6.70597 62.8931 6.84517C62.7667 6.98295 62.7035 7.15767 62.7035 7.36932V9.5H62.1921V7.25852C62.1921 7.07244 62.1317 6.92259 62.011 6.80895C61.8903 6.69389 61.7347 6.63636 61.5444 6.63636C61.4137 6.63636 61.2915 6.67116 61.1779 6.74077C61.0657 6.81037 60.9748 6.90696 60.9052 7.03054C60.837 7.1527 60.8029 7.29403 60.8029 7.45455V9.5H60.3001ZM66.8871 9.56818C66.5717 9.56818 66.2997 9.49858 66.071 9.35938C65.8438 9.21875 65.6683 9.02273 65.5447 8.77131C65.4226 8.51847 65.3615 8.22443 65.3615 7.8892C65.3615 7.55398 65.4226 7.25852 65.5447 7.00284C65.6683 6.74574 65.8402 6.54545 66.0604 6.40199C66.282 6.2571 66.5405 6.18466 66.8359 6.18466C67.0064 6.18466 67.1747 6.21307 67.3409 6.26989C67.5071 6.3267 67.6584 6.41903 67.7947 6.54688C67.9311 6.6733 68.0398 6.84091 68.1207 7.04972C68.2017 7.25852 68.2422 7.51562 68.2422 7.82102V8.03409H65.7195V7.59943H67.7308C67.7308 7.41477 67.6939 7.25 67.62 7.10511C67.5476 6.96023 67.4439 6.84588 67.3089 6.76207C67.1754 6.67827 67.0178 6.63636 66.8359 6.63636C66.6357 6.63636 66.4624 6.68608 66.3161 6.78551C66.1712 6.88352 66.0597 7.01136 65.9815 7.16903C65.9034 7.3267 65.8643 7.49574 65.8643 7.67614V7.96591C65.8643 8.21307 65.907 8.42259 65.9922 8.59446C66.0788 8.76491 66.1989 8.89489 66.3523 8.98438C66.5057 9.07244 66.6839 9.11648 66.8871 9.11648C67.0192 9.11648 67.1385 9.09801 67.245 9.06108C67.353 9.02273 67.446 8.96591 67.5241 8.89062C67.6023 8.81392 67.6626 8.71875 67.7053 8.60511L68.1911 8.74148C68.1399 8.90625 68.054 9.05114 67.9332 9.17614C67.8125 9.29972 67.6634 9.39631 67.4858 9.46591C67.3082 9.53409 67.1087 9.56818 66.8871 9.56818ZM69.5099 7.53125V9.5H69.0071V6.22727H69.4929V6.73864H69.5355C69.6122 6.57244 69.7287 6.43892 69.8849 6.33807C70.0412 6.2358 70.2429 6.18466 70.4901 6.18466C70.7116 6.18466 70.9055 6.23011 71.0717 6.32102C71.2379 6.41051 71.3672 6.54688 71.4595 6.73011C71.5518 6.91193 71.598 7.14205 71.598 7.42045V9.5H71.0952V7.45455C71.0952 7.19744 71.0284 6.99716 70.8949 6.85369C70.7614 6.70881 70.5781 6.63636 70.3452 6.63636C70.1847 6.63636 70.0412 6.67116 69.9148 6.74077C69.7898 6.81037 69.6911 6.91193 69.6186 7.04545C69.5462 7.17898 69.5099 7.34091 69.5099 7.53125ZM73.9402 6.22727V6.65341H72.2441V6.22727H73.9402ZM72.7385 5.44318H73.2413V8.5625C73.2413 8.70455 73.2619 8.81108 73.3031 8.8821C73.3457 8.9517 73.3997 8.99858 73.465 9.02273C73.5318 9.04545 73.6021 9.05682 73.676 9.05682C73.7314 9.05682 73.7768 9.05398 73.8123 9.0483C73.8478 9.04119 73.8762 9.03551 73.8975 9.03125L73.9998 9.48295C73.9657 9.49574 73.9181 9.50852 73.8571 9.52131C73.796 9.53551 73.7186 9.54261 73.6248 9.54261C73.4828 9.54261 73.3436 9.51207 73.2072 9.45099C73.0723 9.38991 72.96 9.29688 72.8706 9.17188C72.7825 9.04688 72.7385 8.8892 72.7385 8.69886V5.44318ZM76.4522 9.5V5.13636H77.9267C78.269 5.13636 78.5488 5.19815 78.7662 5.32173C78.9849 5.44389 79.1468 5.60938 79.252 5.81818C79.3571 6.02699 79.4096 6.25994 79.4096 6.51705C79.4096 6.77415 79.3571 7.00781 79.252 7.21804C79.1483 7.42827 78.9877 7.59588 78.7704 7.72088C78.5531 7.84446 78.2747 7.90625 77.9352 7.90625H76.8784V7.4375H77.9181C78.1525 7.4375 78.3407 7.39702 78.4828 7.31605C78.6248 7.23509 78.7278 7.12571 78.7917 6.98793C78.8571 6.84872 78.8897 6.69176 78.8897 6.51705C78.8897 6.34233 78.8571 6.18608 78.7917 6.0483C78.7278 5.91051 78.6241 5.80256 78.4806 5.72443C78.3372 5.64489 78.1468 5.60511 77.9096 5.60511H76.9806V9.5H76.4522ZM80.6955 5.13636V9.5H80.1926V5.13636H80.6955ZM82.5795 9.5767C82.3722 9.5767 82.1839 9.53764 82.0149 9.45952C81.8459 9.37997 81.7116 9.26562 81.6122 9.11648C81.5128 8.96591 81.4631 8.78409 81.4631 8.57102C81.4631 8.38352 81.5 8.23153 81.5739 8.11506C81.6477 7.99716 81.7464 7.90483 81.87 7.83807C81.9936 7.77131 82.13 7.72159 82.2791 7.68892C82.4297 7.65483 82.581 7.62784 82.733 7.60795C82.9318 7.58239 83.093 7.56321 83.2166 7.55043C83.3416 7.53622 83.4325 7.51278 83.4893 7.48011C83.5476 7.44744 83.5767 7.39062 83.5767 7.30966V7.29261C83.5767 7.08239 83.5192 6.91903 83.4041 6.80256C83.2905 6.68608 83.1179 6.62784 82.8864 6.62784C82.6463 6.62784 82.4581 6.6804 82.3217 6.78551C82.1854 6.89062 82.0895 7.00284 82.0341 7.12216L81.5568 6.9517C81.642 6.75284 81.7557 6.59801 81.8977 6.48722C82.0412 6.375 82.1974 6.29687 82.3665 6.25284C82.5369 6.20739 82.7045 6.18466 82.8693 6.18466C82.9744 6.18466 83.0952 6.19744 83.2315 6.22301C83.3693 6.24716 83.5021 6.29759 83.63 6.37429C83.7592 6.45099 83.8665 6.56676 83.9517 6.72159C84.0369 6.87642 84.0795 7.08381 84.0795 7.34375V9.5H83.5767V9.05682H83.5511C83.517 9.12784 83.4602 9.20384 83.3807 9.2848C83.3011 9.36577 83.1953 9.43466 83.0632 9.49148C82.9311 9.5483 82.7699 9.5767 82.5795 9.5767ZM82.6562 9.125C82.8551 9.125 83.0227 9.08594 83.1591 9.00781C83.2969 8.92969 83.4006 8.82884 83.4702 8.70526C83.5412 8.58168 83.5767 8.4517 83.5767 8.31534V7.85511C83.5554 7.88068 83.5085 7.90412 83.4361 7.92543C83.3651 7.94531 83.2827 7.96307 83.1889 7.97869C83.0966 7.9929 83.0064 8.00568 82.9183 8.01705C82.8317 8.02699 82.7614 8.03551 82.7074 8.04261C82.5767 8.05966 82.4545 8.08736 82.3409 8.12571C82.2287 8.16264 82.1378 8.21875 82.0682 8.29403C82 8.3679 81.9659 8.46875 81.9659 8.59659C81.9659 8.77131 82.0305 8.90341 82.1598 8.9929C82.2905 9.08097 82.456 9.125 82.6562 9.125ZM85.5002 7.53125V9.5H84.9973V6.22727H85.4831V6.73864H85.5257C85.6025 6.57244 85.7189 6.43892 85.8752 6.33807C86.0314 6.2358 86.2331 6.18466 86.4803 6.18466C86.7019 6.18466 86.8958 6.23011 87.062 6.32102C87.2282 6.41051 87.3574 6.54688 87.4498 6.73011C87.5421 6.91193 87.5882 7.14205 87.5882 7.42045V9.5H87.0854V7.45455C87.0854 7.19744 87.0186 6.99716 86.8851 6.85369C86.7516 6.70881 86.5684 6.63636 86.3354 6.63636C86.1749 6.63636 86.0314 6.67116 85.905 6.74077C85.78 6.81037 85.6813 6.91193 85.6088 7.04545C85.5364 7.17898 85.5002 7.34091 85.5002 7.53125ZM90.4418 9.5H89.8878L91.4901 5.13636H92.0355L93.6378 9.5H93.0838L91.7798 5.8267H91.7457L90.4418 9.5ZM90.6463 7.79545H92.8793V8.2642H90.6463V7.79545ZM95.5788 9.56818C95.272 9.56818 95.0078 9.49574 94.7862 9.35085C94.5646 9.20597 94.3942 9.00639 94.2749 8.75213C94.1555 8.49787 94.0959 8.20739 94.0959 7.88068C94.0959 7.5483 94.157 7.25497 94.2791 7.00071C94.4027 6.74503 94.5746 6.54545 94.7947 6.40199C95.0163 6.2571 95.2749 6.18466 95.5703 6.18466C95.8004 6.18466 96.0078 6.22727 96.1925 6.3125C96.3771 6.39773 96.5284 6.51705 96.6463 6.67045C96.7642 6.82386 96.8374 7.00284 96.8658 7.20739H96.3629C96.3246 7.05824 96.2393 6.92614 96.1072 6.81108C95.9766 6.6946 95.8004 6.63636 95.5788 6.63636C95.3828 6.63636 95.2109 6.6875 95.0632 6.78977C94.9169 6.89062 94.8026 7.03338 94.7202 7.21804C94.6392 7.40128 94.5987 7.61648 94.5987 7.86364C94.5987 8.11648 94.6385 8.33665 94.718 8.52415C94.799 8.71165 94.9126 8.85724 95.0589 8.96094C95.2067 9.06463 95.38 9.11648 95.5788 9.11648C95.7095 9.11648 95.8281 9.09375 95.9347 9.0483C96.0412 9.00284 96.1314 8.9375 96.2053 8.85227C96.2791 8.76705 96.3317 8.66477 96.3629 8.54545H96.8658C96.8374 8.73864 96.767 8.91264 96.6548 9.06747C96.544 9.22088 96.397 9.34304 96.2138 9.43395C96.032 9.52344 95.8203 9.56818 95.5788 9.56818ZM99.0241 6.22727V6.65341H97.3281V6.22727H99.0241ZM97.8224 5.44318H98.3253V8.5625C98.3253 8.70455 98.3459 8.81108 98.3871 8.8821C98.4297 8.9517 98.4837 8.99858 98.549 9.02273C98.6158 9.04545 98.6861 9.05682 98.7599 9.05682C98.8153 9.05682 98.8608 9.05398 98.8963 9.0483C98.9318 9.04119 98.9602 9.03551 98.9815 9.03125L99.0838 9.48295C99.0497 9.49574 99.0021 9.50852 98.9411 9.52131C98.88 9.53551 98.8026 9.54261 98.7088 9.54261C98.5668 9.54261 98.4276 9.51207 98.2912 9.45099C98.1563 9.38991 98.044 9.29688 97.9545 9.17188C97.8665 9.04688 97.8224 8.8892 97.8224 8.69886V5.44318ZM99.7805 9.5V6.22727H100.283V9.5H99.7805ZM100.036 5.68182C99.9382 5.68182 99.8537 5.64844 99.7827 5.58168C99.7131 5.51491 99.6783 5.43466 99.6783 5.34091C99.6783 5.24716 99.7131 5.1669 99.7827 5.10014C99.8537 5.03338 99.9382 5 100.036 5C100.134 5 100.218 5.03338 100.288 5.10014C100.359 5.1669 100.394 5.24716 100.394 5.34091C100.394 5.43466 100.359 5.51491 100.288 5.58168C100.218 5.64844 100.134 5.68182 100.036 5.68182ZM103.881 6.22727L102.67 9.5H102.159L100.949 6.22727H101.494L102.398 8.83523H102.432L103.335 6.22727H103.881ZM105.799 9.56818C105.484 9.56818 105.212 9.49858 104.983 9.35938C104.756 9.21875 104.58 9.02273 104.457 8.77131C104.335 8.51847 104.274 8.22443 104.274 7.8892C104.274 7.55398 104.335 7.25852 104.457 7.00284C104.58 6.74574 104.752 6.54545 104.972 6.40199C105.194 6.2571 105.453 6.18466 105.748 6.18466C105.919 6.18466 106.087 6.21307 106.253 6.26989C106.419 6.3267 106.57 6.41903 106.707 6.54688C106.843 6.6733 106.952 6.84091 107.033 7.04972C107.114 7.25852 107.154 7.51562 107.154 7.82102V8.03409H104.632V7.59943H106.643C106.643 7.41477 106.606 7.25 106.532 7.10511C106.46 6.96023 106.356 6.84588 106.221 6.76207C106.088 6.67827 105.93 6.63636 105.748 6.63636C105.548 6.63636 105.374 6.68608 105.228 6.78551C105.083 6.88352 104.972 7.01136 104.894 7.16903C104.816 7.3267 104.776 7.49574 104.776 7.67614V7.96591C104.776 8.21307 104.819 8.42259 104.904 8.59446C104.991 8.76491 105.111 8.89489 105.264 8.98438C105.418 9.07244 105.596 9.11648 105.799 9.11648C105.931 9.11648 106.051 9.09801 106.157 9.06108C106.265 9.02273 106.358 8.96591 106.436 8.89062C106.514 8.81392 106.575 8.71875 106.617 8.60511L107.103 8.74148C107.052 8.90625 106.966 9.05114 106.845 9.17614C106.725 9.29972 106.575 9.39631 106.398 9.46591C106.22 9.53409 106.021 9.56818 105.799 9.56818Z" fill="black"/>
</svg>
